<?xml version="1.0"?>
<svg xmlns="http://www.w3.org/2000/svg" xmlns:xlink="http://www.w3.org/1999/xlink" xmlns:svgjs="http://svgjs.com/svgjs" version="1.1" width="512" height="512" x="0" y="0" viewBox="0 0 512 512" style="enable-background:new 0 0 512 512" xml:space="preserve" class=""><g><g xmlns="http://www.w3.org/2000/svg"><path d="m270.077 482.029 1.847 29.943c61.908-3.818 120.307-30.445 164.437-74.977 43.99-44.39 71.813-103.014 75.64-165.071l-31.433-1.847c-7.022 113.865-97.513 204.985-210.491 211.952z" fill="#ffffff" data-original="#000000" style="" class=""/><path d="m241.923 29.972-1.847-29.943c-61.908 3.817-120.306 30.445-164.436 74.976-43.99 44.39-71.813 103.014-75.64 165.072l30.209 1.847c7.021-113.866 98.736-204.985 211.714-211.952z" fill="#ffffff" data-original="#000000" style="" class=""/><path d="m451 256c0-107.523-87.477-195-195-195s-195 87.477-195 195 87.477 195 195 195 195-87.477 195-195zm-239.093-159.008c-.594 2.911-.907 5.924-.907 9.008 0 24.813 20.187 45 45 45 8.271 0 15 6.729 15 15s-6.729 15-15 15h-75v15c0 8.271-6.729 15-15 15h-60c-3.084 0-6.097.313-9.008.907 15.436-55.599 59.316-99.479 114.915-114.915zm-120.907 159.008c0-8.271 6.729-15 15-15h60c19.556 0 36.239-12.539 42.43-30h47.57c24.813 0 45-20.187 45-45s-20.187-45-45-45c-8.271 0-15-6.729-15-15s6.729-15 15-15c85.925 0 156.707 66.023 164.311 150h-83.098c-17.686 0-34.313 6.887-46.82 19.393-6.84 6.84-15.934 10.607-25.607 10.607h-38.786c-24.813 0-45 20.187-45 45s20.187 45 45 45h45c16.542 0 30 13.458 30 30 0 12.439-7.68 23.534-19.206 27.979-8.407 1.326-17.02 2.021-25.794 2.021-90.981 0-165-74.018-165-165zm238.65 147.62c.88-4.092 1.35-8.314 1.35-12.62 0-33.084-26.916-60-60-60h-45c-8.271 0-15-6.729-15-15s6.729-15 15-15h38.787c17.686 0 34.313-6.887 46.82-19.393 6.84-6.84 15.934-10.607 25.607-10.607h83.098c-5.264 58.123-40.792 107.637-90.662 132.62z" fill="#ffffff" data-original="#000000" style="" class=""/><path d="m332.844 19.269h30v30h-30z" transform="matrix(.383 -.924 .924 .383 183.072 342.522)" fill="#ffffff" data-original="#000000" style="" class=""/><path d="m149.156 462.731h30v30h-30z" transform="matrix(.383 -.924 .924 .383 -340.03 446.575)" fill="#ffffff" data-original="#000000" style="" class=""/><path d="m387.103 50.595h30v30h-30z" transform="matrix(.609 -.793 .793 .609 105.277 344.672)" fill="#ffffff" data-original="#000000" style="" class=""/><path d="m94.897 431.405h30v30h-30z" transform="matrix(.609 -.793 .793 .609 -311.16 261.836)" fill="#ffffff" data-original="#000000" style="" class=""/><path d="m431.405 94.897h30v30h-30z" transform="matrix(.793 -.609 .609 .793 25.346 294.462)" fill="#ffffff" data-original="#000000" style="" class=""/><path d="m50.595 387.103h30v30h-30z" transform="matrix(.793 -.609 .609 .793 -231.228 123.023)" fill="#ffffff" data-original="#000000" style="" class=""/><path d="m462.731 149.156h30v30h-30z" transform="matrix(.924 -.383 .383 .924 -26.455 195.315)" fill="#ffffff" data-original="#000000" style="" class=""/><path d="m19.269 332.844h30v30h-30z" transform="matrix(.924 -.383 .383 .924 -130.506 39.592)" fill="#ffffff" data-original="#000000" style="" class=""/><path d="m480.171 209.674h30v30h-30z" transform="matrix(.991 -.131 .131 .991 -25.09 66.555)" fill="#ffffff" data-original="#000000" style="" class=""/><path d="m1.83 272.326h30v30h-30z" transform="matrix(.991 -.131 .131 .991 -37.36 4.655)" fill="#ffffff" data-original="#000000" style="" class=""/><path d="m272.326 1.872h30v30h-30z" transform="matrix(.131 -.991 .991 .131 233.093 299.537)" fill="#ffffff" data-original="#000000" style="" class=""/><path d="m209.674 480.128h30v30h-30z" transform="matrix(.131 -.991 .991 .131 -295.546 653.249)" fill="#ffffff" data-original="#000000" style="" class=""/></g></g></svg>
